{
	"accessors" : 
	[
		{
			"bufferView" : 2,
			"byteOffset" : 0,
			"componentType" : 5126,
			"count" : 816,
			"max" : 
			[
				1,
				1,
				1,
				1
			],
			"min" : 
			[
				1,
				1,
				1,
				1
			],
			"name" : "accessor_color_m0-PolyGem25_-209966",
			"type" : "VEC4"
		},
		{
			"bufferView" : 2,
			"byteOffset" : 13056,
			"componentType" : 5126,
			"count" : 3484,
			"max" : 
			[
				1,
				1,
				1,
				1
			],
			"min" : 
			[
				0.0697270855307579,
				0.08919350802898407,
				0,
				1
			],
			"name" : "accessor_color_m1-PolyPaper21_-222718",
			"type" : "VEC4"
		},
		{
			"bufferView" : 2,
			"byteOffset" : 68800,
			"componentType" : 5126,
			"count" : 9968,
			"max" : 
			[
				1,
				1,
				1,
				1
			],
			"min" : 
			[
				5.692175545846112e-05,
				0.08919350802898407,
				0,
				1
			],
			"name" : "accessor_color_m2-PolyPaper21_-222634",
			"type" : "VEC4"
		},
		{
			"bufferView" : 0,
			"byteOffset" : 0,
			"componentType" : 5123,
			"count" : 1152,
			"max" : 
			[
				815
			],
			"min" : 
			[
				0
			],
			"name" : "accessor_indices_0_m0-PolyGem25_-209966",
			"type" : "SCALAR"
		},
		{
			"bufferView" : 0,
			"byteOffset" : 2304,
			"componentType" : 5123,
			"count" : 4974,
			"max" : 
			[
				3483
			],
			"min" : 
			[
				0
			],
			"name" : "accessor_indices_0_m1-PolyPaper21_-222718",
			"type" : "SCALAR"
		},
		{
			"bufferView" : 0,
			"byteOffset" : 12252,
			"componentType" : 5123,
			"count" : 13938,
			"max" : 
			[
				9967
			],
			"min" : 
			[
				0
			],
			"name" : "accessor_indices_0_m2-PolyPaper21_-222634",
			"type" : "SCALAR"
		},
		{
			"bufferView" : 1,
			"byteOffset" : 9792,
			"componentType" : 5126,
			"count" : 816,
			"max" : 
			[
				0.9612843,
				0.9657391,
				0.9981319
			],
			"min" : 
			[
				-0.9612843,
				-0.9657391,
				-0.9981319
			],
			"name" : "accessor_normal_m0-PolyGem25_-209966",
			"type" : "VEC3"
		},
		{
			"bufferView" : 1,
			"byteOffset" : 61392,
			"componentType" : 5126,
			"count" : 3484,
			"max" : 
			[
				1,
				0.9930128,
				0.9993539
			],
			"min" : 
			[
				-0.9954962000000001,
				-1,
				-0.9972014
			],
			"name" : "accessor_normal_m1-PolyPaper21_-222718",
			"type" : "VEC3"
		},
		{
			"bufferView" : 1,
			"byteOffset" : 222816,
			"componentType" : 5126,
			"count" : 9968,
			"max" : 
			[
				0.9931248,
				1,
				0.9886399
			],
			"min" : 
			[
				-1,
				-1,
				-0.9970142
			],
			"name" : "accessor_normal_m2-PolyPaper21_-222634",
			"type" : "VEC3"
		},
		{
			"bufferView" : 1,
			"byteOffset" : 0,
			"componentType" : 5126,
			"count" : 816,
			"max" : 
			[
				2.487993,
				2.359916,
				0.2525984
			],
			"min" : 
			[
				2.383667,
				2.27486,
				-0.07761218
			],
			"name" : "accessor_position_m0-PolyGem25_-209966",
			"type" : "VEC3"
		},
		{
			"bufferView" : 1,
			"byteOffset" : 19584,
			"componentType" : 5126,
			"count" : 3484,
			"max" : 
			[
				4.019437,
				2.377712,
				1.325964
			],
			"min" : 
			[
				0.9930852999999999,
				-1.309964,
				-2.015617
			],
			"name" : "accessor_position_m1-PolyPaper21_-222718",
			"type" : "VEC3"
		},
		{
			"bufferView" : 1,
			"byteOffset" : 103200,
			"componentType" : 5126,
			"count" : 9968,
			"max" : 
			[
				4.724966,
				2.68986,
				2.384981
			],
			"min" : 
			[
				0.07496597000000001,
				-1.230024,
				-2.315019
			],
			"name" : "accessor_position_m2-PolyPaper21_-222634",
			"type" : "VEC3"
		}
	],
	"asset" : 
	{
		"copyright" : "Unknown",
		"generator" : "glTF 1-to-2 Upgrader for Google Blocks",
		"version" : "2.0"
	},
	"bufferViews" : 
	[
		{
			"buffer" : 0,
			"byteLength" : 40128,
			"byteOffset" : 0,
			"name" : "ushortBufferView",
			"target" : 34963
		},
		{
			"buffer" : 0,
			"byteLength" : 342432,
			"byteOffset" : 40128,
			"byteStride" : 12,
			"name" : "vec3BufferView",
			"target" : 34962
		},
		{
			"buffer" : 0,
			"byteLength" : 228288,
			"byteOffset" : 382560,
			"byteStride" : 16,
			"name" : "vec4BufferView",
			"target" : 34962
		}
	],
	"buffers" : 
	[
		{
			"byteLength" : 610848,
			"name" : "model",
			"uri" : "model.bin"
		}
	],
	"materials" : 
	[
		{
			"alphaMode" : "OPAQUE",
			"doubleSided" : false,
			"name" : "BlocksPaper",
			"pbrMetallicRoughness" : 
			{
				"baseColorFactor" : 
				[
					1,
					1,
					1,
					1
				],
				"metallicFactor" : 0,
				"roughnessFactor" : 0.6
			}
		},
		{
			"alphaMode" : "BLEND",
			"doubleSided" : false,
			"name" : "BlocksGlass",
			"pbrMetallicRoughness" : 
			{
				"baseColorFactor" : 
				[
					0.2,
					0.2,
					1,
					0.3
				],
				"metallicFactor" : 1,
				"roughnessFactor" : 0.4
			}
		},
		{
			"alphaMode" : "OPAQUE",
			"doubleSided" : true,
			"name" : "BlocksGem",
			"pbrMetallicRoughness" : 
			{
				"baseColorFactor" : 
				[
					1,
					0.4,
					1,
					1
				],
				"metallicFactor" : 0,
				"roughnessFactor" : 0.1
			}
		}
	],
	"meshes" : 
	[
		{
			"name" : "mesh_m0-PolyGem25_-209966",
			"primitives" : 
			[
				{
					"attributes" : 
					{
						"COLOR_0" : 0,
						"NORMAL" : 6,
						"POSITION" : 9
					},
					"indices" : 3,
					"material" : 2,
					"mode" : 4
				}
			]
		},
		{
			"name" : "mesh_m1-PolyPaper21_-222718",
			"primitives" : 
			[
				{
					"attributes" : 
					{
						"COLOR_0" : 1,
						"NORMAL" : 7,
						"POSITION" : 10
					},
					"indices" : 4,
					"material" : 0,
					"mode" : 4
				}
			]
		},
		{
			"name" : "mesh_m2-PolyPaper21_-222634",
			"primitives" : 
			[
				{
					"attributes" : 
					{
						"COLOR_0" : 2,
						"NORMAL" : 8,
						"POSITION" : 11
					},
					"indices" : 5,
					"material" : 0,
					"mode" : 4
				}
			]
		}
	],
	"nodes" : 
	[
		{
			"matrix" : 
			[
				1,
				0,
				0,
				0,
				0,
				1,
				0,
				0,
				0,
				0,
				1,
				0,
				0,
				0,
				0,
				1
			],
			"mesh" : 1,
			"name" : "node_MeshObject1273948928-PolyPaper21"
		},
		{
			"matrix" : 
			[
				1,
				0,
				0,
				0,
				0,
				1,
				0,
				0,
				0,
				0,
				1,
				0,
				0,
				0,
				0,
				1
			],
			"mesh" : 2,
			"name" : "node_MeshObject236508800-PolyPaper21"
		},
		{
			"matrix" : 
			[
				1,
				0,
				0,
				0,
				0,
				1,
				0,
				0,
				0,
				0,
				1,
				0,
				0,
				0,
				0,
				1
			],
			"mesh" : 0,
			"name" : "node_MeshObject746384192-PolyGem25"
		}
	],
	"scene" : 0,
	"scenes" : 
	[
		{
			"extras" : {},
			"name" : "defaultScene",
			"nodes" : 
			[
				2,
				0,
				1
			]
		}
	]
}